<svg width="145" height="34" fill="none" xmlns="http://www.w3.org/2000/svg"><path fill-rule="evenodd" clip-rule="evenodd" d="M61.78.772c-8.918 0-16.148 7.23-16.148 16.149 0 8.918 7.23 16.148 16.149 16.148 8.918 0 16.148-7.23 16.148-16.148C77.972 8.002 70.742.772 61.781.772Zm0 26.41c-5.671 0-10.26-4.59-10.26-10.261 0-5.672 4.589-10.26 10.26-10.26 5.672 0 10.261 4.588 10.261 10.26 0 5.671-4.589 10.26-10.26 10.26ZM103.04 6.66h-5.455V30.04a2.92 2.92 0 0 1-2.944 2.944 2.92 2.92 0 0 1-2.944-2.944V6.66h-4.243V30.04a2.92 2.92 0 0 1-2.944 2.944 2.92 2.92 0 0 1-2.944-2.944V6.66h-4.892a2.92 2.92 0 0 1-2.944-2.944A2.92 2.92 0 0 1 76.674.772h26.322a2.92 2.92 0 0 1 2.944 2.944c.044 1.602-1.298 2.944-2.9 2.944Zm41.259-2.944V30.04a2.92 2.92 0 0 1-2.944 2.944 2.92 2.92 0 0 1-2.944-2.944V12.938v.216l-12.642 18.14c-.909 1.342-2.641 1.775-3.593 1.819-8.14 0-14.85-6.018-15.976-13.811v10.737a2.92 2.92 0 0 1-2.944 2.944 2.92 2.92 0 0 1-2.944-2.944V11.985a2.92 2.92 0 0 1 2.944-2.944 2.92 2.92 0 0 1 2.944 2.944v2.598A16.108 16.108 0 0 1 122.176.773c2.857 0 5.585.778 7.922 2.077.78.52 1.343 1.429 1.343 2.468a2.92 2.92 0 0 1-2.944 2.944c-.563 0-1.039-.13-1.472-.39-1.429-.779-3.031-1.169-4.806-1.169a10.255 10.255 0 0 0-10.261 10.261c0 5.369 4.156 9.785 9.438 10.217l17.275-24.59c.476-1.04 1.472-1.776 2.684-1.776 1.645-.043 2.944 1.256 2.944 2.901ZM48.662 28.177c1.04 1.256.823 3.117-.432 4.156-1.256 1.04-3.118.823-4.157-.432L35.588 21.38 27.102 31.9c-1.039 1.256-2.857 1.473-4.156.433-1.256-1.039-1.472-2.857-.433-4.156l9.308-11.473-3.767-4.632v2.684a10.07 10.07 0 0 1-10.087 10.088A10.07 10.07 0 0 1 7.88 14.756V3.716A2.92 2.92 0 0 1 10.823.772a2.92 2.92 0 0 1 2.944 2.944v11.04c0 2.338 1.862 4.2 4.2 4.2s4.2-1.905 4.2-4.2V3.716A2.92 2.92 0 0 1 25.11.772c1.04 0 1.949.563 2.468 1.386l8.01 9.87L43.77 1.941c1.04-1.255 2.858-1.472 4.156-.433 1.256 1.04 1.472 2.857.433 4.156l-8.962 11.084 9.265 11.43Zm-27.751 1.775a2.92 2.92 0 0 1-2.944 2.944H3.593a3.341 3.341 0 0 1-.649.087A2.92 2.92 0 0 1 0 30.039V3.716A2.92 2.92 0 0 1 2.944.772a2.92 2.92 0 0 1 2.944 2.944v23.292h12.079a2.92 2.92 0 0 1 2.944 2.944Z" fill="#A7A7A7"/></svg>