<svg width="229" height="38" fill="none" xmlns="http://www.w3.org/2000/svg"><path d="M50.591 14.745v19.449c0 1.461-1.334 2.542-2.606 2.542h-6.737c-1.334 0-2.415-1.08-2.415-2.542V14.936c-.572-3.432-2.606-4.195-5.02-4.004-.764-2.161-1.526-4.004-2.797-5.784-2.606-2.542-2.225-1.652-2.987-2.542.19 0 1.525-1.08 3.368-1.653 1.462-.381 4.258-.572 6.165-.381 5.021.7 6.737 1.97 8.199 3.114l1.525 1.462c3.496 3.75 3.305 8.135 3.305 9.597ZM65.146 1.462h-6.547c-1.525 0-2.605 1.08-2.605 2.542V34.13c0 1.462 1.144 2.542 2.605 2.542h6.547c1.525 0 2.605-1.08 2.605-2.542V4.004c0-1.462-1.144-2.542-2.605-2.542Zm37.244 0h-6.737c-1.525 0-2.606 1.08-2.606 2.542v20.72c0 2.351-2.606 2.732-2.606 2.732v10.17h3.56c1.461-.191 3.75-.572 5.593-1.844 1.461-1.08 2.987-2.732 4.131-4.576.762-1.27.953-2.351 1.144-3.813V3.941c-.064-1.399-1.144-2.48-2.479-2.48ZM85.103 25.105V22.18l-.191-17.796c0-1.461-1.144-2.542-2.415-2.542H75.76c-1.462 0-2.606 1.08-2.606 2.542v23.453c.19 1.462.381 2.542 1.271 3.813 1.144 1.653 2.415 3.432 4.131 4.386 1.843 1.27 3.94 1.843 5.403 1.843h3.559V27.71c0-.063-2.415-.444-2.415-2.605ZM16.08.572h-.763C6.927.572.191 7.309.191 15.127L0 34.192c0 1.462 1.144 2.543 2.606 2.543H8.77c1.462 0 2.606-1.08 2.606-2.542V14.936c.381-1.462 2.605-3.305 4.449-3.305 1.652 0 3.75 1.843 4.322 3.305v19.067c0 1.462 1.143 2.542 2.415 2.542h6.355c1.335 0 2.416-1.08 2.416-2.542l.19-18.559C31.588 7.436 24.66.572 16.08.572Zm154.379 4.195-1.334-1.462c-1.462-1.08-3.178-2.352-8.39-3.241-1.652-.191-4.449.19-5.974.572-1.843.572-3.369 1.652-3.559 1.652.953.89.381 0 2.987 2.542 1.462 1.843 2.224 3.623 2.796 5.784 2.606-.19 4.449.572 5.021 4.004v19.258c0 1.462 1.271 2.542 2.606 2.542h6.737c1.335 0 2.415-1.08 2.415-2.542l.191-19.449c.063-1.525.191-5.847-3.496-9.66Zm18.05-3.623h-6.737c-1.334 0-2.415 1.08-2.415 2.542v30.126c0 1.462 1.144 2.543 2.415 2.543h6.737c1.335 0 2.415-1.081 2.415-2.543V3.686c0-1.462-1.08-2.542-2.415-2.542Zm37.117 0h-6.737c-1.271 0-2.415 1.08-2.415 2.542v17.987c0 .19 0 1.08-.19 2.733 0 2.351-2.416 2.733-2.416 2.733v10.169h3.56c1.461-.19 3.559-.7 5.402-1.843 1.652-1.08 3.178-2.733 4.258-4.513.763-1.271.954-2.352 1.144-3.813V3.686c0-1.462-1.144-2.542-2.606-2.542Zm-17.35 23.58V3.814c0-1.272-1.145-2.352-2.606-2.352h-6.547c-1.525 0-2.605 1.08-2.605 2.351v23.643c.19 1.462.381 2.543 1.144 3.623 1.144 1.843 2.605 3.623 4.258 4.513 1.843 1.27 3.94 1.843 5.402 1.843h3.559v-10.17s-2.415-.38-2.605-2.541ZM139.507 0l-.763.19c-8.58 0-15.253 6.738-15.253 14.555v19.067c0 1.462 1.144 2.543 2.606 2.543h6.165c1.461 0 2.605-1.081 2.605-2.543l-.19-18.876.19-.381c.382-1.462 2.606-3.242 4.259-3.242 1.652 0 3.94 1.653 4.258 3.242l.191.19-.191 18.877c0 1.461 1.144 2.542 2.606 2.542h6.165c1.525 0 2.606-1.08 2.606-2.543V14.936C154.761 7.118 148.087 0 139.507 0Z" fill="#A7A7A7"/></svg>