<svg width="205" height="37" fill="none" xmlns="http://www.w3.org/2000/svg"><path d="M103.971 5.16c.118.647.118 1.293.118 1.94v23.876c0 2.47-.882 4.41-3.176 5.41-2.47 1.059-4.822.647-6.822-1.176-1.234-1.117-2.175-2.529-3.234-3.881-2.764-3.529-5.763-6.94-8.115-10.82.058-.06 0-.06-.06-.118-.117.176-.058.411-.058.588v9.233c0 .882-.118 1.705-.353 2.528-.764 2.647-2.999 4.234-5.763 4.058-3.41-.235-5.351-2.294-5.587-5.88-.058-.354-.058-.706-.058-1.06V6.043c0-2.47.94-4.41 3.293-5.41 2.41-1 4.704-.647 6.704 1.176 1.058.94 1.823 2.234 2.705 3.41 2.646 3.588 5.469 7.116 7.939 10.88.235.412.47.764.882 1.117V6.747c0-1.352.235-2.705.94-3.88C94.622.69 96.62-.016 98.973.22c2.764.235 4.646 2.117 4.999 4.94ZM189.829 4.1c-.588-2-1.881-3.41-3.998-3.822-2.235-.412-4.293-.118-5.881 1.764-1.059 1.294-1.412 2.823-1.412 4.41v10.939a30.586 30.586 0 0 0-1.058-1.706c-3.058-4.47-6.351-8.703-9.586-13.055-.411-.53-.941-1-1.529-1.411-2.058-1.353-4.175-1.47-6.351-.47-1.94.94-2.94 2.587-2.94 4.704-.059 8.35 0 16.76 0 25.11 0 .177.059.412.059.588.235 3.352 2.234 5.47 5.528 5.705 2.293.176 4.41-1 5.41-3 .411-.882.705-1.764.705-2.704 0-3.411.059-6.704.059-10.056v-.647c.059 0 .059 0 0 0 .353.588.647 1.117 1.059 1.646 2.999 4.293 6.41 8.233 9.585 12.35.236.294.588.647.883.882 1.999 1.646 4.292 1.94 6.645.94 2.293-.999 3.175-2.94 3.175-5.35V6.982c0-.941-.059-1.94-.353-2.882ZM31.815 11.922c2.352 6.528 1.588 12.762-3.058 18.23-2.823 3.353-6.646 5.117-10.938 5.705-3.94.588-7.94.176-11.938.235a2.09 2.09 0 0 1-.588-.117C2.176 35.445 0 32.858 0 29.74V7.218C0 3.69 2.705.867 6.292.808h4.999c2.058.059 4.41-.176 6.763.294 6.469 1.235 11.467 4.47 13.76 10.82ZM21.288 18.51c.059-3.293-2.117-5.88-5.41-6.292-1.235-.177-2.411-.06-3.646-.118-.47-.059-.588.118-.588.588.059 1.94.059 3.881.059 5.822v5.822c0 .294-.06.53.411.53 1.235-.06 2.47.058 3.705-.119 3.234-.411 5.41-2.822 5.47-6.233Zm108.147.235c-.295-.353-.295-.53 0-.882 2.058-2.352 4.116-4.704 6.115-7.116 1-1.235 1.647-2.587 1.765-4.175.235-3.47-3.058-6.645-6.528-6.292-1.999.176-3.411 1.293-4.587 2.822-2.058 2.706-4.234 5.293-6.351 7.998 0-1.764.059-3.528.059-5.234-.118-3.41-2.529-5.704-5.822-5.763-3.352 0-5.822 2.353-5.881 5.763-.059 8.41-.059 16.82 0 25.229 0 3.352 2.47 5.763 5.822 5.763 3.293.059 5.704-2.352 5.822-5.763.118-1.706.059-3.352.059-5.058 0-.176-.118-.353.117-.47.118.176.177.294.294.412 2.235 2.881 4.587 5.645 6.881 8.468.823 1 1.764 1.705 2.999 2.058 3.528 1.059 7.41-1.94 7.527-5.763.059-1.823-.588-3.293-1.764-4.646-2.176-2.411-4.352-4.94-6.527-7.35Zm-62.513-3.646c0-3.352 0-6.116-.058-8.939 0-.529 0-1-.118-1.47C66.1 1.69 63.453-.19 60.395.102c-3.117.353-5.234 2.705-5.234 5.881v14.525c0 .353 0 .706-.059 1.059-.294 2.764-2.94 4.47-5.351 3.234-1.53-.764-2.117-2.117-2.117-3.763V6.159c0-3.587-2.411-6.057-5.822-6.115-3.41 0-5.822 2.47-5.88 5.998-.06 5.234 0 10.467 0 15.76.058.765.058 1.47.176 2.176.823 5.528 3.704 9.527 8.938 11.644 2.94 1.235 5.999 1.411 9.115 1 7.057-.883 12.291-6.47 12.703-13.526.176-2.823 0-5.704.058-7.998Zm84.271-13.526c-1.94-1.705-4.175-1.999-6.527-1-2.235 1-3.235 2.882-3.294 5.293-.058 4.176 0 8.351 0 12.526 0 4.293 0 8.469-.058 12.703 0 3.293 2.411 5.586 5.763 5.704 3.175.118 5.822-2.294 5.88-5.528.059-8.586.059-17.172 0-25.757 0-1.53-.588-2.94-1.764-3.94ZM193.828 8.57c-.058-1.41 0-2.822.294-4.234.647-2.94 3.117-4.587 6.116-4.116 2.882.47 4.764 2.823 4.47 5.763-.235 2.411-.941 4.763-1.882 6.998-.588 1.294-1.411 2.352-2.823 2.823-2.293.764-4.704-.353-5.528-2.646-.588-1.47-.647-3.058-.647-4.587Z" fill="#A7A7A7"/></svg>