<svg width="264" height="36" fill="none" xmlns="http://www.w3.org/2000/svg"><path d="M95.62 11.322C95.62 5.551 90.916.848 85.144.848H67.69v34.2h7.766V21.797h6.2l7.552 13.253h8.621l-8.194-14.322c3.705-1.71 5.985-5.415 5.985-9.405ZM83.577 15.17h-8.194V7.473h8.336c2.565.143 4.204 1.64 4.204 3.848-.071 2.209-1.781 3.776-4.346 3.848ZM54.008.92h7.98v20.59c0 8.979-5.557 14.394-14.89 14.394-9.335 0-14.892-5.344-14.892-14.393V.919h7.98v20.093c0 4.845 2.565 7.624 6.911 7.624 4.418 0 6.983-2.779 6.983-7.624V.92h-.072Zm88.281 27.288h18.454v6.84H134.38V.849h25.508v6.555H142.36v6.84h15.391v6.698H142.36v7.268h-.071ZM21.66 16.096c2.423-1.496 3.92-4.133 3.92-6.983 0-4.489-3.635-8.194-8.195-8.265H0v34.2h18.882c5.343 0 9.618-4.346 9.618-9.69 0-3.776-2.208-7.695-6.84-9.262ZM7.838 7.26h6.412c1.924 0 3.563 1.638 3.563 3.562a3.528 3.528 0 0 1-3.563 3.563H7.838V7.26Zm8.764 21.375H7.838v-7.98h8.692c2.85 0 4.204 2.28 4.204 3.919 0 2.066-1.425 4.061-4.132 4.061Zm177.344-17.314c0-5.771-4.702-10.474-10.474-10.474h-17.456v34.2h7.766V21.797h6.199l7.553 13.253h8.621l-8.194-14.322c3.634-1.71 5.985-5.415 5.985-9.405Zm-12.113 3.848h-8.193V7.473h8.336c2.565.143 4.204 1.64 4.204 3.848 0 2.209-1.782 3.776-4.347 3.848Zm-58.639.926c2.422-1.496 3.918-4.133 3.918-6.983 0-4.489-3.633-8.194-8.193-8.265h-17.386v34.2h18.882c5.344 0 9.619-4.346 9.619-9.69 0-3.776-2.28-7.695-6.84-9.262ZM109.371 7.26h6.412c1.924 0 3.563 1.638 3.563 3.562a3.528 3.528 0 0 1-3.563 3.563h-6.412V7.26Zm8.692 21.375h-8.692v-7.98h8.692c2.851 0 4.204 2.28 4.204 3.919 0 2.066-1.425 4.061-4.204 4.061ZM263.345.848l-13.609 20.235v13.894h-8.408V21.083L227.791.848h9.975l7.837 11.756L253.441.848h9.904Zm-35.626 10.474c0-5.771-4.702-10.474-10.474-10.474h-17.456v34.2h7.766V21.797h6.199l7.553 13.253h8.692l-8.194-14.322c3.634-1.71 5.914-5.415 5.914-9.405Zm-12.112 3.848h-8.194V7.473h8.336c2.565.143 4.204 1.64 4.204 3.848 0 2.209-1.71 3.776-4.346 3.848Z" fill="#A7A7A7"/></svg>